<svg width="116" height="20" viewBox="0 0 116 20" fill="none" xmlns="http://www.w3.org/2000/svg">
<path d="M9.42937 1.75623C9.60898 1.20344 10.391 1.20344 10.5706 1.75623L12.1104 6.49524C12.1908 6.74245 12.4211 6.90983 12.6811 6.90983H17.664C18.2452 6.90983 18.4869 7.6536 18.0166 7.99524L13.9854 10.9241C13.7751 11.0769 13.6871 11.3477 13.7674 11.5949L15.3072 16.3339C15.4868 16.8867 14.8541 17.3464 14.3839 17.0048L10.3527 14.0759C10.1424 13.9231 9.85762 13.9231 9.64733 14.0759L5.61609 17.0048C5.14586 17.3464 4.51317 16.8867 4.69278 16.3339L6.23258 11.5949C6.3129 11.3477 6.22491 11.0769 6.01462 10.9241L1.98337 7.99524C1.51315 7.6536 1.75481 6.90983 2.33605 6.90983H7.31893C7.57887 6.90983 7.80924 6.74245 7.88957 6.49524L9.42937 1.75623Z" fill="#FFBE3D"/>
<path d="M33.4294 1.75623C33.609 1.20344 34.391 1.20344 34.5706 1.75623L36.1104 6.49524C36.1908 6.74245 36.4211 6.90983 36.6811 6.90983H41.664C42.2452 6.90983 42.4869 7.6536 42.0166 7.99524L37.9854 10.9241C37.7751 11.0769 37.6871 11.3477 37.7674 11.5949L39.3072 16.3339C39.4868 16.8867 38.8541 17.3464 38.3839 17.0048L34.3527 14.0759C34.1424 13.9231 33.8576 13.9231 33.6473 14.0759L29.6161 17.0048C29.1459 17.3464 28.5132 16.8867 28.6928 16.3339L30.2326 11.5949C30.3129 11.3477 30.2249 11.0769 30.0146 10.9241L25.9834 7.99524C25.5131 7.6536 25.7548 6.90983 26.336 6.90983H31.3189C31.5789 6.90983 31.8092 6.74245 31.8896 6.49524L33.4294 1.75623Z" fill="#FFBE3D"/>
<path d="M57.4294 1.75623C57.609 1.20344 58.391 1.20344 58.5706 1.75623L60.1104 6.49524C60.1908 6.74245 60.4211 6.90983 60.6811 6.90983H65.664C66.2452 6.90983 66.4869 7.6536 66.0166 7.99524L61.9854 10.9241C61.7751 11.0769 61.6871 11.3477 61.7674 11.5949L63.3072 16.3339C63.4868 16.8867 62.8541 17.3464 62.3839 17.0048L58.3527 14.0759C58.1424 13.9231 57.8576 13.9231 57.6473 14.0759L53.6161 17.0048C53.1459 17.3464 52.5132 16.8867 52.6928 16.3339L54.2326 11.5949C54.3129 11.3477 54.2249 11.0769 54.0146 10.9241L49.9834 7.99524C49.5131 7.6536 49.7548 6.90983 50.336 6.90983H55.3189C55.5789 6.90983 55.8092 6.74245 55.8896 6.49524L57.4294 1.75623Z" fill="#FFBE3D"/>
<path d="M81.4294 1.75623C81.609 1.20344 82.391 1.20344 82.5706 1.75623L84.1104 6.49524C84.1908 6.74245 84.4211 6.90983 84.6811 6.90983H89.664C90.2452 6.90983 90.4869 7.6536 90.0166 7.99524L85.9854 10.9241C85.7751 11.0769 85.6871 11.3477 85.7674 11.5949L87.3072 16.3339C87.4868 16.8867 86.8541 17.3464 86.3839 17.0048L82.3527 14.0759C82.1424 13.9231 81.8576 13.9231 81.6473 14.0759L77.6161 17.0048C77.1459 17.3464 76.5132 16.8867 76.6928 16.3339L78.2326 11.5949C78.3129 11.3477 78.2249 11.0769 78.0146 10.9241L73.9834 7.99524C73.5131 7.6536 73.7548 6.90983 74.336 6.90983H79.3189C79.5789 6.90983 79.8092 6.74245 79.8896 6.49524L81.4294 1.75623Z" fill="#FFBE3D"/>
<path d="M105.429 1.75623C105.609 1.20344 106.391 1.20344 106.571 1.75623L108.11 6.49524C108.191 6.74245 108.421 6.90983 108.681 6.90983H113.664C114.245 6.90983 114.487 7.6536 114.017 7.99524L109.985 10.9241C109.775 11.0769 109.687 11.3477 109.767 11.5949L111.307 16.3339C111.487 16.8867 110.854 17.3464 110.384 17.0048L106.353 14.0759C106.142 13.9231 105.858 13.9231 105.647 14.0759L101.616 17.0048C101.146 17.3464 100.513 16.8867 100.693 16.3339L102.233 11.5949C102.313 11.3477 102.225 11.0769 102.015 10.9241L97.9834 7.99524C97.5131 7.6536 97.7548 6.90983 98.336 6.90983H103.319C103.579 6.90983 103.809 6.74245 103.89 6.49524L105.429 1.75623Z" fill="#FFBE3D"/>
</svg>
